# xmcd
#
# Track frame offsets:
#	150
#	13486
#	27886
#	50128
#	68950
#	89056
#	106155
#	118658
#	131344
#	147768
#	162669
#	177066
#	194534
#	215218
#	233689
#
# Disc length: 3330 seconds
#
# Revision: 0
# Processed by: cddbd v1.4PL0 Copyright (c) Steve Scherf et al.
# Submitted via: audiograbber 1.82.02
#
DISCID=e20d000f
DTITLE=Eric Clapton - Old slow hand
DYEAR=1999
DGENRE=Acoustic
TTITLE0=Wonderful Tonight
TTITLE1=Edge Of Darkness
TTITLE2=Lay Down Sally
TTITLE3=Tears In Heaven
TTITLE4=Layla(acoustic)
TTITLE5=Cocaine
TTITLE6=Swing low, sweet chariot
TTITLE7=After midnight
TTITLE8=I shot the sheriff
TTITLE9=Tulsa time
TTITLE10=Willie and the hand jive
TTITLE11=Change the world
TTITLE12=My father's eyes
TTITLE13=Circus
TTITLE14=The White room
EXTD=
EXTT0=
EXTT1=
EXTT2=
EXTT3=
EXTT4=
EXTT5=
EXTT6=
EXTT7=
EXTT8=
EXTT9=
EXTT10=
EXTT11=
EXTT12=
EXTT13=
EXTT14=
PLAYORDER=
